<svg xmlns="http://www.w3.org/2000/svg" version="1.1" xmlns:xlink="http://www.w3.org/1999/xlink" xmlns:svgjs="http://svgjs.com/svgjs" width="1440" height="560" preserveAspectRatio="none" viewBox="0 0 1440 560"><g mask="url(&quot;#SvgjsMask1000&quot;)" fill="none"><rect width="1440" height="560" x="0" y="0" fill="#0e2a47"></rect><rect width="191.52" height="191.52" clip-path="url(&quot;#SvgjsClipPath1001&quot;)" x="605.68" y="136.41" fill="url(#SvgjsPattern1002)" transform="rotate(68.46, 701.44, 232.17)"></rect><circle r="46.666666666666664" cx="1097.71" cy="551.83" stroke="#037b0b" stroke-width="2.13" stroke-dasharray="3, 3"></circle><rect width="152.39999999999998" height="152.39999999999998" clip-path="url(&quot;#SvgjsClipPath1003&quot;)" x="896.71" y="411.96" fill="url(#SvgjsPattern1004)" transform="rotate(12.04, 972.91, 488.16)"></rect><path d="M935.36 500.01L928 489.53 936.61 480.05 929.25 469.57 937.86 460.09 930.5 449.61 939.11 440.13M943.34 500.52L935.98 490.03 944.59 480.56 937.23 470.07 945.85 460.59 938.49 450.11 947.1 440.63M951.32 501.02L943.97 490.54 952.58 481.06 945.22 470.57 953.83 461.1 946.47 450.61 955.08 441.13" stroke="#e73635" stroke-width="2.6" stroke-dasharray="4, 4"></path><rect width="60" height="60" clip-path="url(&quot;#SvgjsClipPath1005&quot;)" x="167.05" y="231.74" fill="url(#SvgjsPattern1006)" transform="rotate(209.18, 197.05, 261.74)"></rect><path d="M1129.29 378L1120.13 386.95 1109.39 379.98 1100.23 388.93 1089.48 381.96 1080.33 390.91 1069.58 383.94" stroke="#037b0b" stroke-width="2.92" stroke-dasharray="2, 2"></path><path d="M849.64 156.11a5.6 5.6 0 1 0-8.57-7.21 5.6 5.6 0 1 0 8.57 7.21zM837.4 145.81a5.6 5.6 0 1 0-8.57-7.21 5.6 5.6 0 1 0 8.57 7.21zM825.15 135.51a5.6 5.6 0 1 0-8.57-7.21 5.6 5.6 0 1 0 8.57 7.21zM812.91 125.21a5.6 5.6 0 1 0-8.57-7.21 5.6 5.6 0 1 0 8.57 7.21zM884.43 164.46a5.6 5.6 0 1 0-8.57-7.21 5.6 5.6 0 1 0 8.57 7.21zM872.19 154.16a5.6 5.6 0 1 0-8.58-7.21 5.6 5.6 0 1 0 8.58 7.21zM859.94 143.86a5.6 5.6 0 1 0-8.57-7.21 5.6 5.6 0 1 0 8.57 7.21zM847.7 133.56a5.6 5.6 0 1 0-8.57-7.21 5.6 5.6 0 1 0 8.57 7.21zM919.22 172.82a5.6 5.6 0 1 0-8.57-7.21 5.6 5.6 0 1 0 8.57 7.21zM906.97 162.52a5.6 5.6 0 1 0-8.57-7.21 5.6 5.6 0 1 0 8.57 7.21zM894.73 152.22a5.6 5.6 0 1 0-8.57-7.21 5.6 5.6 0 1 0 8.57 7.21zM882.49 141.92a5.6 5.6 0 1 0-8.58-7.21 5.6 5.6 0 1 0 8.58 7.21z" fill="#037b0b"></path><path d="M527.13 275.13L514.68 272.12 514.88 259.32 502.43 256.31 502.64 243.5 490.19 240.49 490.39 227.69M533.45 270.23L521 267.22 521.21 254.42 508.76 251.41 508.96 238.6 496.52 235.59 496.72 222.79" stroke="#e73635" stroke-width="2.55" stroke-dasharray="3, 3"></path><path d="M1014.56 53.76a5.6 5.6 0 1 0 10.28 4.45 5.6 5.6 0 1 0-10.28-4.45zM1029.25 60.11a5.6 5.6 0 1 0 10.28 4.44 5.6 5.6 0 1 0-10.28-4.44zM1043.94 66.45a5.6 5.6 0 1 0 10.28 4.44 5.6 5.6 0 1 0-10.28-4.44zM1058.63 72.8a5.6 5.6 0 1 0 10.28 4.44 5.6 5.6 0 1 0-10.28-4.44z" stroke="#d3b714" stroke-width="1" stroke-dasharray="4, 4"></path><path d="M1295.81 350.78 L1236.93 360.52L1235.746602008299 325.0266020082992z" stroke="#037b0b" stroke-width="2.73"></path><path d="M95.89 149.58a5.6 5.6 0 1 0 11.12-1.32 5.6 5.6 0 1 0-11.12 1.32zM111.77 147.69a5.6 5.6 0 1 0 11.13-1.32 5.6 5.6 0 1 0-11.13 1.32zM127.66 145.8a5.6 5.6 0 1 0 11.12-1.32 5.6 5.6 0 1 0-11.12 1.32zM143.55 143.92a5.6 5.6 0 1 0 11.12-1.32 5.6 5.6 0 1 0-11.12 1.32z" stroke="#037b0b" stroke-width="2.88" stroke-dasharray="3, 3"></path><path d="M1219.04 403.48a5.6 5.6 0 1 0-10.81 2.92 5.6 5.6 0 1 0 10.81-2.92zM1203.59 407.66a5.6 5.6 0 1 0-10.81 2.92 5.6 5.6 0 1 0 10.81-2.92zM1188.15 411.84a5.6 5.6 0 1 0-10.81 2.92 5.6 5.6 0 1 0 10.81-2.92zM1172.7 416.02a5.6 5.6 0 1 0-10.81 2.92 5.6 5.6 0 1 0 10.81-2.92z" stroke="#d3b714" stroke-width="1" stroke-dasharray="2, 2"></path></g><defs><mask id="SvgjsMask1000"><rect width="1440" height="560" fill="#ffffff"></rect></mask><pattern x="0" y="0" width="191.52" height="13.68" patternUnits="userSpaceOnUse" id="SvgjsPattern1002"><rect width="191.52" height="6.84" x="0" y="0" fill="#d3b714"></rect><rect width="191.52" height="6.84" x="0" y="6.84" fill="rgba(0, 0, 0, 0)"></rect></pattern><clipPath id="SvgjsClipPath1001"><circle r="47.88" cx="701.44" cy="232.17"></circle></clipPath><pattern x="0" y="0" width="12.7" height="12.7" patternUnits="userSpaceOnUse" id="SvgjsPattern1004"><path d="M0 12.7L6.35 0L12.7 12.7" stroke="#e73635" fill="none"></path></pattern><clipPath id="SvgjsClipPath1003"><circle r="38.099999999999994" cx="972.91" cy="488.16"></circle></clipPath><pattern x="0" y="0" width="60" height="6" patternUnits="userSpaceOnUse" id="SvgjsPattern1006"><rect width="60" height="3" x="0" y="0" fill="#d3b714"></rect><rect width="60" height="3" x="0" y="3" fill="rgba(0, 0, 0, 0)"></rect></pattern><clipPath id="SvgjsClipPath1005"><circle r="15" cx="197.05" cy="261.74"></circle></clipPath></defs></svg>