<?xml version="1.0" standalone="no"?><svg xmlns:xlink="http://www.w3.org/1999/xlink" xmlns="http://www.w3.org/2000/svg" viewBox="0 0 1000 545.4545454545455" preserveAspectRatio="xMaxYMax slice"><g transform="scale(1.6835016835016836)"><rect x="0" y="0" width="594" height="324" fill="#ffffff"/><rect x="0" y="0" width="54" height="54" fill="#f0f3fd"/><polygon points="0,0 54,54 0,54" fill="#aebaff"/><rect x="54" y="0" width="54" height="54" fill="#ffffff"/><rect x="54" y="0" width="27" height="27" fill="#637bff"/><polygon points="54,0 81,27 54,27" fill="#3d5aff"/><rect x="81" y="0" width="27" height="27" fill="#516cff"/><polygon points="81,0 108,27 81,27" fill="#5972ff"/><rect x="54" y="27" width="27" height="27" fill="#3859e5"/><polygon points="81,27 81,54 54,54" fill="#2549e3"/><rect x="81" y="27" width="27" height="27" fill="#bcc6ff"/><polygon points="81,27 108,27 108,54" fill="#c1caff"/><rect x="108" y="0" width="54" height="54" fill="#7a91ee"/><polygon points="108,0 162,0 162,54" fill="#ffffff"/><rect x="162" y="0" width="54" height="54" fill="#b4c0f5"/><polygon points="162,0 216,0 216,54" fill="#8b9ef0"/><rect x="216" y="0" width="54" height="54" fill="#ffffff"/><rect x="216" y="0" width="27" height="27" fill="#798fee"/><polygon points="243,0 243,27 216,27" fill="#859aef"/><rect x="243" y="0" width="27" height="27" fill="#6a81ff"/><polygon points="270,0 270,27 243,27" fill="#5774e9"/><rect x="216" y="27" width="27" height="27" fill="#5a76ea"/><polygon points="243,27 243,54 216,54" fill="#c8d1ff"/><rect x="243" y="27" width="27" height="27" fill="#96a6ff"/><polygon points="270,27 270,54 243,54" fill="#acbaf4"/><rect x="270" y="0" width="54" height="54" fill="#ffffff"/><rect x="270" y="0" width="27" height="27" fill="#c9d2f8"/><polygon points="270,0 297,0 297,27" fill="#6b81ff"/><rect x="297" y="0" width="27" height="27" fill="#647bff"/><polygon points="297,0 324,0 324,27" fill="#d2d9f9"/><rect x="270" y="27" width="27" height="27" fill="#b0bcff"/><polygon points="297,27 297,54 270,54" fill="#8196ef"/><rect x="297" y="27" width="27" height="27" fill="#2f52e4"/><polygon points="297,27 324,54 297,54" fill="#546eff"/><rect x="324" y="0" width="54" height="54" fill="#f2f4ff"/><polygon points="324,0 378,0 324,54" fill="#9cadf2"/><rect x="378" y="0" width="54" height="54" fill="#5b77ea"/><polygon points="432,0 432,54 378,54" fill="#8c9eff"/><rect x="432" y="0" width="54" height="54" fill="#a5b2ff"/><polygon points="486,0 486,54 432,54" fill="#c9d1ff"/><rect x="486" y="0" width="54" height="54" fill="#ffffff"/><rect x="486" y="0" width="27" height="27" fill="#9bacf2"/><polygon points="486,0 513,0 513,27" fill="#3153e4"/><rect x="513" y="0" width="27" height="27" fill="#cbd4f8"/><polygon points="540,0 540,27 513,27" fill="#d9e0fa"/><rect x="486" y="27" width="27" height="27" fill="#5f7aea"/><polygon points="486,27 513,27 513,54" fill="#4161e6"/><rect x="513" y="27" width="27" height="27" fill="#8698ff"/><polygon points="513,27 540,54 513,54" fill="#6c83ff"/><rect x="540" y="0" width="54" height="54" fill="#ffffff"/><rect x="540" y="0" width="27" height="27" fill="#738aed"/><polygon points="567,0 567,27 540,27" fill="#4561ff"/><rect x="567" y="0" width="27" height="27" fill="#8499ef"/><polygon points="567,0 594,0 567,27" fill="#7287ff"/><rect x="540" y="27" width="27" height="27" fill="#d1d9f9"/><polygon points="540,27 567,54 540,54" fill="#bac5f6"/><rect x="567" y="27" width="27" height="27" fill="#f9fafe"/><polygon points="567,27 594,27 567,54" fill="#b3c0f5"/><rect x="0" y="54" width="54" height="54" fill="#8196ef"/><polygon points="54,54 54,108 0,108" fill="#647eeb"/><rect x="54" y="54" width="54" height="54" fill="#ffffff"/><rect x="54" y="54" width="27" height="27" fill="#cbd4f8"/><polygon points="54,54 81,81 54,81" fill="#bec9f7"/><rect x="81" y="54" width="27" height="27" fill="#aab9f4"/><polygon points="81,54 108,81 81,81" fill="#778cff"/><rect x="54" y="81" width="27" height="27" fill="#5972ff"/><polygon points="81,81 81,108 54,108" fill="#2146e2"/><rect x="81" y="81" width="27" height="27" fill="#d9e0fa"/><polygon points="81,81 108,81 108,108" fill="#4f6de8"/><rect x="108" y="54" width="54" height="54" fill="#ffffff"/><rect x="108" y="54" width="27" height="27" fill="#d9dfff"/><polygon points="108,54 135,81 108,81" fill="#1c42e1"/><rect x="135" y="54" width="27" height="27" fill="#6179ff"/><polygon points="135,54 162,81 135,81" fill="#506bff"/><rect x="108" y="81" width="27" height="27" fill="#f2f4fd"/><polygon points="108,81 135,81 135,108" fill="#b2bff5"/><rect x="135" y="81" width="27" height="27" fill="#dfe4ff"/><polygon points="135,81 162,81 135,108" fill="#a6b4ff"/><rect x="162" y="54" width="54" height="54" fill="#90a2f1"/><polygon points="162,54 216,54 216,108" fill="#d8deff"/><rect x="216" y="54" width="54" height="54" fill="#ffffff"/><rect x="216" y="54" width="27" height="27" fill="#98a7ff"/><polygon points="216,54 243,54 243,81" fill="#c0cbf7"/><rect x="243" y="54" width="27" height="27" fill="#647bff"/><polygon points="243,54 270,54 270,81" fill="#4262e6"/><rect x="216" y="81" width="27" height="27" fill="#d2d9ff"/><polygon points="243,81 243,108 216,108" fill="#5471e9"/><rect x="243" y="81" width="27" height="27" fill="#90a3f1"/><polygon points="243,81 270,81 243,108" fill="#889aff"/><rect x="270" y="54" width="54" height="54" fill="#f2f4ff"/><polygon points="270,54 324,54 270,108" fill="#a8b5ff"/><rect x="324" y="54" width="54" height="54" fill="#ffffff"/><rect x="324" y="54" width="27" height="27" fill="#e2e7fb"/><polygon points="324,54 351,54 351,81" fill="#dadfff"/><rect x="351" y="54" width="27" height="27" fill="#7b92ee"/><polygon points="378,54 378,81 351,81" fill="#b5c0ff"/><rect x="324" y="81" width="27" height="27" fill="#f5f6ff"/><polygon points="324,81 351,108 324,108" fill="#93a5f1"/><rect x="351" y="81" width="27" height="27" fill="#395ae5"/><polygon points="351,81 378,81 351,108" fill="#8a9df0"/><rect x="378" y="54" width="54" height="54" fill="#ffffff"/><rect x="378" y="54" width="27" height="27" fill="#5872ff"/><polygon points="378,54 405,54 378,81" fill="#95a7f1"/><rect x="405" y="54" width="27" height="27" fill="#7186ff"/><polygon points="405,54 432,54 432,81" fill="#2247e2"/><rect x="378" y="81" width="27" height="27" fill="#7e92ff"/><polygon points="378,81 405,108 378,108" fill="#3d5bff"/><rect x="405" y="81" width="27" height="27" fill="#94a6f1"/><polygon points="405,81 432,108 405,108" fill="#cdd6f9"/><rect x="432" y="54" width="54" height="54" fill="#ffffff"/><rect x="432" y="54" width="27" height="27" fill="#667dff"/><polygon points="432,54 459,81 432,81" fill="#879bef"/><rect x="459" y="54" width="27" height="27" fill="#5d78ea"/><polygon points="486,54 486,81 459,81" fill="#bac5ff"/><rect x="432" y="81" width="27" height="27" fill="#92a4f1"/><polygon points="432,81 459,81 459,108" fill="#3e5bff"/><rect x="459" y="81" width="27" height="27" fill="#4561ff"/><polygon points="459,81 486,81 486,108" fill="#5f77ff"/><rect x="486" y="54" width="54" height="54" fill="#1b41e1"/><polygon points="486,54 540,54 486,108" fill="#a0afff"/><rect x="540" y="54" width="54" height="54" fill="#5572e9"/><polygon points="594,54 594,108 540,108" fill="#d0d8f9"/><rect x="0" y="108" width="54" height="54" fill="#6d83ff"/><polygon points="0,108 54,162 0,162" fill="#e8ecfc"/><rect x="54" y="108" width="54" height="54" fill="#92a5f1"/><polygon points="54,108 108,162 54,162" fill="#8599ef"/><rect x="108" y="108" width="54" height="54" fill="#a5b3ff"/><polygon points="108,108 162,108 108,162" fill="#3b58ff"/><rect x="162" y="108" width="54" height="54" fill="#ffffff"/><rect x="162" y="108" width="27" height="27" fill="#f7f8ff"/><polygon points="162,108 189,135 162,135" fill="#3654ff"/><rect x="189" y="108" width="27" height="27" fill="#4f6aff"/><polygon points="189,108 216,135 189,135" fill="#97a7ff"/><rect x="162" y="135" width="27" height="27" fill="#e7ebff"/><polygon points="189,135 189,162 162,162" fill="#92a5f1"/><rect x="189" y="135" width="27" height="27" fill="#385ae5"/><polygon points="189,135 216,135 216,162" fill="#dae0ff"/><rect x="216" y="108" width="54" height="54" fill="#5471e9"/><polygon points="216,108 270,108 216,162" fill="#e1e6ff"/><rect x="270" y="108" width="54" height="54" fill="#ffffff"/><rect x="270" y="108" width="27" height="27" fill="#d4dbf9"/><polygon points="270,108 297,108 297,135" fill="#1c43e2"/><rect x="297" y="108" width="27" height="27" fill="#3957ff"/><polygon points="297,108 324,108 297,135" fill="#2a4ee3"/><rect x="270" y="135" width="27" height="27" fill="#4864ff"/><polygon points="270,135 297,135 297,162" fill="#2f52e4"/><rect x="297" y="135" width="27" height="27" fill="#8497ff"/><polygon points="297,135 324,162 297,162" fill="#264ae3"/><rect x="324" y="108" width="54" height="54" fill="#ffffff"/><rect x="324" y="108" width="27" height="27" fill="#5973ff"/><polygon points="324,108 351,108 324,135" fill="#b8c4f6"/><rect x="351" y="108" width="27" height="27" fill="#738aed"/><polygon points="378,108 378,135 351,135" fill="#6c85ec"/><rect x="324" y="135" width="27" height="27" fill="#526cff"/><polygon points="324,135 351,135 324,162" fill="#a9b6ff"/><rect x="351" y="135" width="27" height="27" fill="#5875e9"/><polygon points="351,135 378,135 351,162" fill="#dee4fb"/><rect x="378" y="108" width="54" height="54" fill="#ffffff"/><rect x="378" y="108" width="27" height="27" fill="#d3daf9"/><polygon points="378,108 405,135 378,135" fill="#dae0fa"/><rect x="405" y="108" width="27" height="27" fill="#2d51e4"/><polygon points="432,108 432,135 405,135" fill="#8194ff"/><rect x="378" y="135" width="27" height="27" fill="#3e5ee6"/><polygon points="378,135 405,162 378,162" fill="#e7ebff"/><rect x="405" y="135" width="27" height="27" fill="#274be3"/><polygon points="405,135 432,135 405,162" fill="#2045e2"/><rect x="432" y="108" width="54" height="54" fill="#ffffff"/><rect x="432" y="108" width="27" height="27" fill="#aebaff"/><polygon points="432,108 459,108 432,135" fill="#3b59ff"/><rect x="459" y="108" width="27" height="27" fill="#8297ef"/><polygon points="459,108 486,135 459,135" fill="#f3f5ff"/><rect x="432" y="135" width="27" height="27" fill="#f1f4fd"/><polygon points="459,135 459,162 432,162" fill="#8fa0ff"/><rect x="459" y="135" width="27" height="27" fill="#fafbff"/><polygon points="459,135 486,135 486,162" fill="#bfcaf7"/><rect x="486" y="108" width="54" height="54" fill="#ffffff"/><rect x="486" y="108" width="27" height="27" fill="#e5e9fc"/><polygon points="513,108 513,135 486,135" fill="#ffffff"/><rect x="513" y="108" width="27" height="27" fill="#cfd6ff"/><polygon points="513,108 540,108 513,135" fill="#5874e9"/><rect x="486" y="135" width="27" height="27" fill="#dde3ff"/><polygon points="486,135 513,135 486,162" fill="#95a5ff"/><rect x="513" y="135" width="27" height="27" fill="#96a6ff"/><polygon points="540,135 540,162 513,162" fill="#c5ceff"/><rect x="540" y="108" width="54" height="54" fill="#4f6ce8"/><polygon points="594,108 594,162 540,162" fill="#2247e2"/><rect x="0" y="162" width="54" height="54" fill="#ffffff"/><rect x="0" y="162" width="27" height="27" fill="#546eff"/><polygon points="0,162 27,189 0,189" fill="#d0d7ff"/><rect x="27" y="162" width="27" height="27" fill="#c4cef7"/><polygon points="54,162 54,189 27,189" fill="#c9d2f8"/><rect x="0" y="189" width="27" height="27" fill="#3154e4"/><polygon points="0,189 27,216 0,216" fill="#c0cbf7"/><rect x="27" y="189" width="27" height="27" fill="#fcfcff"/><polygon points="27,189 54,189 27,216" fill="#bec8ff"/><rect x="54" y="162" width="54" height="54" fill="#ffffff"/><rect x="54" y="162" width="27" height="27" fill="#8a9cff"/><polygon points="81,162 81,189 54,189" fill="#d6ddff"/><rect x="81" y="162" width="27" height="27" fill="#f7f9fe"/><polygon points="81,162 108,189 81,189" fill="#6c83ff"/><rect x="54" y="189" width="27" height="27" fill="#3f5cff"/><polygon points="54,189 81,189 81,216" fill="#3352ff"/><rect x="81" y="189" width="27" height="27" fill="#4360ff"/><polygon points="81,189 108,216 81,216" fill="#4763ff"/><rect x="108" y="162" width="54" height="54" fill="#ffffff"/><rect x="108" y="162" width="27" height="27" fill="#778cff"/><polygon points="108,162 135,162 108,189" fill="#b8c3ff"/><rect x="135" y="162" width="27" height="27" fill="#889cf0"/><polygon points="135,162 162,162 162,189" fill="#c6d0f8"/><rect x="108" y="189" width="27" height="27" fill="#e4e9fc"/><polygon points="135,189 135,216 108,216" fill="#7f92ff"/><rect x="135" y="189" width="27" height="27" fill="#899bff"/><polygon points="162,189 162,216 135,216" fill="#3153e4"/><rect x="162" y="162" width="54" height="54" fill="#9aa9ff"/><polygon points="162,162 216,162 162,216" fill="#6078ff"/><rect x="216" y="162" width="54" height="54" fill="#7e94ee"/><polygon points="216,162 270,162 216,216" fill="#4f6aff"/><rect x="270" y="162" width="54" height="54" fill="#ffffff"/><rect x="270" y="162" width="27" height="27" fill="#f8f9ff"/><polygon points="270,162 297,162 270,189" fill="#f2f4ff"/><rect x="297" y="162" width="27" height="27" fill="#8597ff"/><polygon points="297,162 324,162 324,189" fill="#1b42e1"/><rect x="270" y="189" width="27" height="27" fill="#8c9eff"/><polygon points="297,189 297,216 270,216" fill="#637aff"/><rect x="297" y="189" width="27" height="27" fill="#8497ff"/><polygon points="297,189 324,189 324,216" fill="#8fa0ff"/><rect x="324" y="162" width="54" height="54" fill="#3254e4"/><polygon points="324,162 378,162 378,216" fill="#95a5ff"/><rect x="378" y="162" width="54" height="54" fill="#2e52e4"/><polygon points="378,162 432,162 378,216" fill="#4a65ff"/><rect x="432" y="162" width="54" height="54" fill="#3254e4"/><polygon points="432,162 486,216 432,216" fill="#f2f4fd"/><rect x="486" y="162" width="54" height="54" fill="#ffffff"/><rect x="486" y="162" width="27" height="27" fill="#f4f6fe"/><polygon points="486,162 513,162 486,189" fill="#778eed"/><rect x="513" y="162" width="27" height="27" fill="#fafbfe"/><polygon points="513,162 540,162 513,189" fill="#6078ff"/><rect x="486" y="189" width="27" height="27" fill="#e2e7fb"/><polygon points="513,189 513,216 486,216" fill="#a5b3ff"/><rect x="513" y="189" width="27" height="27" fill="#4763ff"/><polygon points="540,189 540,216 513,216" fill="#bac6f6"/><rect x="540" y="162" width="54" height="54" fill="#3856ff"/><polygon points="594,162 594,216 540,216" fill="#eff2ff"/><rect x="0" y="216" width="54" height="54" fill="#ffffff"/><rect x="0" y="216" width="27" height="27" fill="#2147e2"/><polygon points="0,216 27,243 0,243" fill="#254ae3"/><rect x="27" y="216" width="27" height="27" fill="#95a5ff"/><polygon points="54,216 54,243 27,243" fill="#a2b2f3"/><rect x="0" y="243" width="27" height="27" fill="#a2b0ff"/><polygon points="0,243 27,270 0,270" fill="#d5dcfa"/><rect x="27" y="243" width="27" height="27" fill="#5975e9"/><polygon points="27,243 54,270 27,270" fill="#ecefff"/><rect x="54" y="216" width="54" height="54" fill="#a6b4ff"/><polygon points="108,216 108,270 54,270" fill="#e9edfc"/><rect x="108" y="216" width="54" height="54" fill="#ffffff"/><rect x="108" y="216" width="27" height="27" fill="#5c78ea"/><polygon points="135,216 135,243 108,243" fill="#a8b7f4"/><rect x="135" y="216" width="27" height="27" fill="#a7b4ff"/><polygon points="162,216 162,243 135,243" fill="#a9b6ff"/><rect x="108" y="243" width="27" height="27" fill="#90a3f1"/><polygon points="108,243 135,243 135,270" fill="#3254e4"/><rect x="135" y="243" width="27" height="27" fill="#8598ff"/><polygon points="135,243 162,243 162,270" fill="#9eadff"/><rect x="162" y="216" width="54" height="54" fill="#ffffff"/><rect x="162" y="216" width="27" height="27" fill="#f0f3fd"/><polygon points="189,216 189,243 162,243" fill="#a1b1f3"/><rect x="189" y="216" width="27" height="27" fill="#5872ff"/><polygon points="216,216 216,243 189,243" fill="#3c5aff"/><rect x="162" y="243" width="27" height="27" fill="#eaedfc"/><polygon points="189,243 189,270 162,270" fill="#4a68e7"/><rect x="189" y="243" width="27" height="27" fill="#e2e7fb"/><polygon points="189,243 216,270 189,270" fill="#d2d9f9"/><rect x="216" y="216" width="54" height="54" fill="#a6b3ff"/><polygon points="216,216 270,216 216,270" fill="#a2b2f3"/><rect x="270" y="216" width="54" height="54" fill="#ffffff"/><rect x="270" y="216" width="27" height="27" fill="#6179ff"/><polygon points="297,216 297,243 270,243" fill="#c6cfff"/><rect x="297" y="216" width="27" height="27" fill="#b3beff"/><polygon points="297,216 324,243 297,243" fill="#98aaf2"/><rect x="270" y="243" width="27" height="27" fill="#dce2fb"/><polygon points="297,243 297,270 270,270" fill="#adbaf4"/><rect x="297" y="243" width="27" height="27" fill="#768bff"/><polygon points="324,243 324,270 297,270" fill="#a1afff"/><rect x="324" y="216" width="54" height="54" fill="#9fadff"/><polygon points="324,216 378,270 324,270" fill="#90a1ff"/><rect x="378" y="216" width="54" height="54" fill="#d8dffa"/><polygon points="378,216 432,216 378,270" fill="#92a4f1"/><rect x="432" y="216" width="54" height="54" fill="#ffffff"/><rect x="432" y="216" width="27" height="27" fill="#bfc8ff"/><polygon points="432,216 459,216 459,243" fill="#3453ff"/><rect x="459" y="216" width="27" height="27" fill="#a0b0f3"/><polygon points="459,216 486,216 486,243" fill="#566fff"/><rect x="432" y="243" width="27" height="27" fill="#1a41e1"/><polygon points="432,243 459,243 432,270" fill="#7d90ff"/><rect x="459" y="243" width="27" height="27" fill="#5e79ea"/><polygon points="459,243 486,243 486,270" fill="#526cff"/><rect x="486" y="216" width="54" height="54" fill="#5b74ff"/><polygon points="486,216 540,216 540,270" fill="#d1d9f9"/><rect x="540" y="216" width="54" height="54" fill="#ffffff"/><rect x="540" y="216" width="27" height="27" fill="#b0bcff"/><polygon points="540,216 567,216 540,243" fill="#627ceb"/><rect x="567" y="216" width="27" height="27" fill="#c6ceff"/><polygon points="567,216 594,216 594,243" fill="#2c4fe4"/><rect x="540" y="243" width="27" height="27" fill="#9dacff"/><polygon points="567,243 567,270 540,270" fill="#788dff"/><rect x="567" y="243" width="27" height="27" fill="#5f77ff"/><polygon points="594,243 594,270 567,270" fill="#5673e9"/><rect x="0" y="270" width="54" height="54" fill="#ffffff"/><rect x="0" y="270" width="27" height="27" fill="#3655ff"/><polygon points="0,270 27,270 0,297" fill="#5774e9"/><rect x="27" y="270" width="27" height="27" fill="#d0d8f9"/><polygon points="27,270 54,270 27,297" fill="#b6c1ff"/><rect x="0" y="297" width="27" height="27" fill="#9bacf2"/><polygon points="0,297 27,297 0,324" fill="#5a73ff"/><rect x="27" y="297" width="27" height="27" fill="#d3daf9"/><polygon points="27,297 54,297 27,324" fill="#a4b2ff"/><rect x="54" y="270" width="54" height="54" fill="#ffffff"/><rect x="54" y="270" width="27" height="27" fill="#fbfbfe"/><polygon points="54,270 81,270 54,297" fill="#92a3ff"/><rect x="81" y="270" width="27" height="27" fill="#c9d1ff"/><polygon points="81,270 108,270 108,297" fill="#b2bdff"/><rect x="54" y="297" width="27" height="27" fill="#f7f9fe"/><polygon points="54,297 81,297 54,324" fill="#bac5f6"/><rect x="81" y="297" width="27" height="27" fill="#9aa9ff"/><polygon points="81,297 108,324 81,324" fill="#f3f5fd"/><rect x="108" y="270" width="54" height="54" fill="#9aabf2"/><polygon points="162,270 162,324 108,324" fill="#9eacff"/><rect x="162" y="270" width="54" height="54" fill="#7086ff"/><polygon points="162,270 216,324 162,324" fill="#8095ee"/><rect x="216" y="270" width="54" height="54" fill="#ffffff"/><rect x="216" y="270" width="27" height="27" fill="#98a7ff"/><polygon points="216,270 243,270 243,297" fill="#e7ebff"/><rect x="243" y="270" width="27" height="27" fill="#254ae3"/><polygon points="243,270 270,270 270,297" fill="#e0e5ff"/><rect x="216" y="297" width="27" height="27" fill="#95a5ff"/><polygon points="216,297 243,324 216,324" fill="#e6eaff"/><rect x="243" y="297" width="27" height="27" fill="#3755ff"/><polygon points="243,297 270,324 243,324" fill="#5f7aea"/><rect x="270" y="270" width="54" height="54" fill="#e1e6fb"/><polygon points="270,270 324,270 270,324" fill="#c2ccf7"/><rect x="324" y="270" width="54" height="54" fill="#d9e0fa"/><polygon points="324,270 378,270 324,324" fill="#d4dbf9"/><rect x="378" y="270" width="54" height="54" fill="#ffffff"/><rect x="378" y="270" width="27" height="27" fill="#e4e8fb"/><polygon points="378,270 405,297 378,297" fill="#eef1fd"/><rect x="405" y="270" width="27" height="27" fill="#526cff"/><polygon points="405,270 432,270 432,297" fill="#91a1ff"/><rect x="378" y="297" width="27" height="27" fill="#8598ff"/><polygon points="405,297 405,324 378,324" fill="#798dff"/><rect x="405" y="297" width="27" height="27" fill="#3a58ff"/><polygon points="405,297 432,297 432,324" fill="#5871ff"/><rect x="432" y="270" width="54" height="54" fill="#7c92ee"/><polygon points="432,270 486,270 486,324" fill="#e4e9fb"/><rect x="486" y="270" width="54" height="54" fill="#7288ff"/><polygon points="486,270 540,324 486,324" fill="#4665e7"/><rect x="540" y="270" width="54" height="54" fill="#ffffff"/><rect x="540" y="270" width="27" height="27" fill="#3e5fe6"/><polygon points="540,270 567,297 540,297" fill="#adb9ff"/><rect x="567" y="270" width="27" height="27" fill="#738bed"/><polygon points="567,270 594,297 567,297" fill="#4763ff"/><rect x="540" y="297" width="27" height="27" fill="#dde3fb"/><polygon points="540,297 567,324 540,324" fill="#9dadf2"/><rect x="567" y="297" width="27" height="27" fill="#526cff"/><polygon points="567,297 594,324 567,324" fill="#e3e8ff"/></g></svg>