<svg xmlns="http://www.w3.org/2000/svg" version="1.1" xmlns:xlink="http://www.w3.org/1999/xlink" xmlns:svgjs="http://svgjs.com/svgjs" width="1440" height="250" preserveAspectRatio="none" viewBox="0 0 1440 250"><g mask="url(&quot;#SvgjsMask1003&quot;)" fill="none"><rect width="1440" height="250" x="0" y="0" fill="rgba(206, 211, 217, 1)"></rect><path d="M47 250L297 0L516 0L266 250z" fill="url(#SvgjsLinearGradient1004)"></path><path d="M279.6 250L529.6 0L772.6 0L522.6 250z" fill="url(#SvgjsLinearGradient1004)"></path><path d="M514.2 250L764.2 0L993.7 0L743.7 250z" fill="url(#SvgjsLinearGradient1004)"></path><path d="M731.8000000000001 250L981.8000000000001 0L1146.8000000000002 0L896.8000000000001 250z" fill="url(#SvgjsLinearGradient1004)"></path><path d="M1433 250L1183 0L1066 0L1316 250z" fill="url(#SvgjsLinearGradient1005)"></path><path d="M1185.4 250L935.4000000000001 0L719.4000000000001 0L969.4000000000001 250z" fill="url(#SvgjsLinearGradient1005)"></path><path d="M952.8 250L702.8 0L480.79999999999995 0L730.8 250z" fill="url(#SvgjsLinearGradient1005)"></path><path d="M690.1999999999999 250L440.19999999999993 0L273.69999999999993 0L523.6999999999999 250z" fill="url(#SvgjsLinearGradient1005)"></path><path d="M1195.3887542264079 250L1440 5.388754226407883L1440 250z" fill="url(#SvgjsLinearGradient1004)"></path><path d="M0 250L244.61124577359212 250L 0 5.388754226407883z" fill="url(#SvgjsLinearGradient1005)"></path></g><defs><mask id="SvgjsMask1003"><rect width="1440" height="250" fill="#ffffff"></rect></mask><linearGradient x1="0%" y1="100%" x2="100%" y2="0%" id="SvgjsLinearGradient1004"><stop stop-color="rgba(15, 70, 185, 0.2)" offset="0"></stop><stop stop-opacity="0" stop-color="rgba(15, 70, 185, 0.2)" offset="0.66"></stop></linearGradient><linearGradient x1="100%" y1="100%" x2="0%" y2="0%" id="SvgjsLinearGradient1005"><stop stop-color="rgba(15, 70, 185, 0.2)" offset="0"></stop><stop stop-opacity="0" stop-color="rgba(15, 70, 185, 0.2)" offset="0.66"></stop></linearGradient></defs></svg>